<svg xmlns="http://www.w3.org/2000/svg" fill="none" viewBox="875 513 300 500" width="800" height="600">
  <path transform="translate(875,513)" d="m0 0h25l17 4 15 6 11 7 10 8 7 7 7 9 18-2 23-2h32l24 2 18 2 6-8 6-7 14-11 15-8 15-5 11-2h26l17 4 16 7 12 7 13 12 9 11 9 16 5 15 2 11v26l-4 16-5 12-6 11 1 9 4 18 1 10v9l-2 17-5 17-8 16-6 10-5 7 1 1 25-3h21l16 3 12 5 9 7 7 10 3 9 1 5v19l-4 19-6 16-8 17-12 20-16 21-6 7 36 10 22 8 17 8 15 10 7 7 6 10 2 12-3 10-5 8h-265l3-2 17-9 17-12 13-12 8-8 12-16 10-18 7-18 4-17 1-7v-29l-2-7-17-2h-10l-22 3-18 5-18 8-17 10-4 3h-2l-5-23-7-19-9-17-10-13-9-10-11-9-6-3-13 10-10 10-11 15-11 21-5 15-5 22h-4l-15-10-17-8-19-6-18-3h-30l-6 2-1 4v31l4 20 5 15 9 19 12 17 12 14 11 10 17 12 21 11v1h-263l-5-5-4-13 1-10 5-10 11-11 18-11 19-8 24-8 24-6h4l-7-8-10-12-11-17-8-14-7-14-7-21-3-14v-21l4-13 6-9 8-7 10-5 11-3 7-1h24l22 3 5 1-4-7-7-10-8-17-5-17-2-12v-20l3-18 3-10-1-6-8-16-4-12-2-12v-22l4-18 6-15 9-14 9-10 10-9 13-8 11-5 15-4z" fill="#77C538"/>
  <path transform="translate(1155,562)" d="m0 0h15l13 4 9 6 5 5 6 7 5 12 1 4v15l-4 13-7 11-8 7-14 7-9 2h-10l-12-3-10-5-10-9-6-9-4-13v-16l3-10 5-9 7-8 11-7 8-3z" fill="#FEFFFF"/>
  <path transform="translate(880,562)" d="m0 0h16l12 4 11 7 8 9 5 10 2 7v18l-4 11-6 10-7 7-10 6-15 4h-9l-13-3-11-6-9-9-6-10-3-11v-16l4-13 7-10 9-8 10-5z" fill="#FEFFFF"/>
</svg>
